<svg xmlns="http://www.w3.org/2000/svg" xmlns:xlink="http://www.w3.org/1999/xlink" viewBox="0 0 38.6 42.54"><defs><style>.cls-1{isolation:isolate;}.cls-2{fill:url(#linear-gradient);}.cls-3{mix-blend-mode:multiply;opacity:0.92;fill:url(#radial-gradient);}.cls-4{fill-rule:evenodd;fill:url(#linear-gradient-2);}</style><linearGradient id="linear-gradient" x1="5.5" y1="27.18" x2="38.41" y2="27.18" gradientUnits="userSpaceOnUse"><stop offset="0" stop-color="#61beff"/><stop offset="1" stop-color="#0076f1"/></linearGradient><radialGradient id="radial-gradient" cx="158.54" cy="263.99" r="4.49" gradientTransform="matrix(-1.07, -1.14, 2.28, -2.82, -421.15, 940.55)" gradientUnits="userSpaceOnUse"><stop offset="0.05" stop-color="#272727"/><stop offset="0.22" stop-color="#5e5e5e"/><stop offset="0.41" stop-color="#979797"/><stop offset="0.59" stop-color="#c4c4c4"/><stop offset="0.75" stop-color="#e4e4e4"/><stop offset="0.88" stop-color="#f8f8f8"/><stop offset="0.97" stop-color="#fff"/></radialGradient><linearGradient id="linear-gradient-2" x1="0.32" y1="17.37" x2="38.6" y2="17.37" gradientUnits="userSpaceOnUse"><stop offset="0" stop-color="#c3db85"/><stop offset="1" stop-color="#89ba37"/></linearGradient></defs><g class="cls-1"><g id="Layer_2" data-name="Layer 2"><g id="Layer_1-2" data-name="Layer 1"><path class="cls-2" d="M30.77,12.07c-.16-.1-.32-.17-.48-.25h0c.15.08.32.15.47.25ZM17.56,14.85a10.44,10.44,0,0,0-1.39,2.55,11.27,11.27,0,0,0-.77,4.2,11.11,11.11,0,0,0,.77,4.19,10.35,10.35,0,0,0,2.13,3.42,9.92,9.92,0,0,0,7.37,3.17,10.61,10.61,0,0,0,3.44-.57,10.48,10.48,0,0,0,3-1.57,1.24,1.24,0,0,1,.83-.24,1.11,1.11,0,0,1,.65.49l4.67,6.73a1.08,1.08,0,0,1,.08,1,1.73,1.73,0,0,1-.68.69,21.57,21.57,0,0,1-5.53,2.67,20.73,20.73,0,0,1-6.25.94,20.37,20.37,0,0,1-5.55-.74,20.77,20.77,0,0,1-5-2.1,21,21,0,0,1-4.23-3.27,21.27,21.27,0,0,1-3.28-4.21,20.55,20.55,0,0,1-2.11-5c-.07-.26-.14-.53-.2-.79,2.28-5.65,6.5-9.3,12.06-11.6Z"/><path class="cls-3" d="M6.43,8.85c5.68-7,12.66-10.3,15.51-7.29s.55,11.2-5.12,18.18S4.08,30.17,1.23,27.12.7,15.92,6.43,8.85Z"/><path class="cls-4" d="M.45,34.75C-.28,24,2.13,13.52,8.4,6.92A23.63,23.63,0,0,1,32,1a22.43,22.43,0,0,1,5.77,2.78,1.86,1.86,0,0,1,.71.71,1.14,1.14,0,0,1-.09,1.06l-4.87,7a1.09,1.09,0,0,1-.68.5,1.28,1.28,0,0,1-.85-.25C17.83,4.85,3.14,19.36.55,34.19c0,.2-.07.38-.1.56Z"/></g></g></g></svg>